<svg width="242" height="105" viewBox="0 0 242 105" fill="none" xmlns="http://www.w3.org/2000/svg">
<path d="M100.211 53.0709C100.394 55.1936 99.6252 57.353 97.9417 58.8901C96.2581 60.4273 94.0622 61.0129 91.976 60.6835C91.793 58.5607 92.5616 56.4014 94.2452 54.8642C95.9287 53.3271 98.1246 52.7415 100.211 53.0709ZM86.4862 23.2793C85.498 25.3288 85.5712 27.598 86.4862 29.5011C88.5723 29.0619 90.4023 27.7078 91.3905 25.6582C92.3786 23.6087 92.3054 21.3395 91.3905 19.4364C89.3409 19.8756 87.4743 21.2297 86.4862 23.2793ZM81.2525 22.1813C82.8263 19.9854 83.3753 17.1306 82.5701 14.3857C81.7649 11.6042 79.7153 9.55464 77.2266 8.56647C75.6528 10.7624 75.1039 13.6171 75.909 16.3621C76.7142 19.1436 78.7638 21.1931 81.2525 22.1813ZM88.426 77.6288C85.5712 77.8118 83.1191 79.349 81.6185 81.5449C83.4119 83.5213 86.047 84.6924 88.9017 84.5095C91.7564 84.3265 94.2086 82.7893 95.7091 80.5934C93.9158 78.617 91.2807 77.4458 88.426 77.6288ZM96.0751 65.4048C98.1613 64.6728 100.284 64.0872 102.443 63.7212L102.151 62.1109C97.9051 62.8794 93.7694 64.3068 89.9631 66.2831C89.1579 60.0979 90.7317 53.6931 94.355 48.6058L93.0374 47.6542C89.0481 53.2539 87.4012 60.3175 88.4625 67.1249C83.8877 69.7234 79.8252 73.1272 76.5678 77.1896L77.8122 78.2144C82.1675 72.7978 88.06 68.5523 94.6478 65.9537C93.7328 67.3811 93.3302 69.1745 93.6596 70.9678C94.0622 73.237 95.4529 75.0303 97.3195 76.0185C98.7469 74.4447 99.4422 72.2488 99.0396 70.0162C98.7103 68.0765 97.5757 66.4295 96.0751 65.4048ZM43.8849 93.0004C44.0313 89.9993 42.7503 87.2544 40.6276 85.4244C38.3584 87.0348 36.7847 89.6333 36.6383 92.6344C36.4919 95.6356 37.7729 98.3805 39.8956 100.21C42.1647 98.6001 43.7385 96.0015 43.8849 93.0004ZM88.9383 41.1762C88.1698 42.2742 87.9501 43.7015 88.3893 45.0923C88.8285 46.4831 89.8899 47.4712 91.1342 47.947C91.9028 46.8491 92.1225 45.4217 91.6833 44.0309C91.2441 42.6402 90.1827 41.652 88.9383 41.1762ZM58.3415 31.5141C57.573 32.612 57.3533 34.0394 57.7925 35.4302C58.2317 36.8209 59.2931 37.8091 60.5375 38.2849C61.306 37.1869 61.5257 35.7595 61.0865 34.3688C60.6473 32.978 59.5859 31.9898 58.3415 31.5141ZM28.4035 93.1834C26.4638 93.6226 24.9266 94.9402 24.158 96.6237C25.5854 97.7949 27.5252 98.3073 29.5015 97.8681C31.4412 97.4289 32.9784 96.1113 33.747 94.4278C32.3196 93.2566 30.3799 92.7442 28.4035 93.1834ZM22.8404 85.6806C21.4131 84.0703 19.327 83.0821 17.0212 83.1919C14.7155 83.3017 12.7026 84.5094 11.4948 86.2662C12.9221 87.8766 15.0083 88.8647 17.314 88.7549C19.6198 88.6451 21.6327 87.4374 22.8404 85.6806ZM79.7154 70.8946C81.4355 69.7234 82.4237 67.8569 82.5335 65.9171C80.7036 65.3316 78.6174 65.5512 76.8606 66.7223C75.4699 67.6739 74.5915 69.0647 74.2255 70.5652C73.8229 65.9903 73.7863 61.4155 74.1523 56.804C76.7142 57.2066 79.4226 56.5478 81.5453 54.7178C83.7413 52.8147 84.8026 50.0698 84.6562 47.3614C81.9845 46.8491 79.1298 47.5078 76.9339 49.411C75.8725 50.326 75.1039 51.4239 74.5915 52.6317C74.5915 52.6317 74.5915 52.6317 74.5915 52.5951C75.1771 48.13 76.2019 43.7015 77.556 39.3828C79.7154 36.9673 82.3505 34.8446 85.2784 33.1976C85.7176 34.8812 86.779 36.4183 88.3893 37.3699C90.2925 38.5045 92.525 38.6143 94.4282 37.8823C94.172 35.8327 93.0374 33.9296 91.1342 32.795C90.1095 32.1728 89.0115 31.8801 87.9136 31.8435C90.9147 30.4893 94.172 29.5377 97.5025 29.1717L97.3195 27.5614C90.3291 28.4031 83.7047 31.4409 78.6906 35.9425C81.1793 29.0619 84.6196 22.5107 88.9017 16.5085L86.3764 14.7151C79.5323 24.3041 74.7745 35.2838 72.4321 46.7027C71.7368 46.3733 71.0414 46.0439 70.3826 45.7145C71.6636 43.6649 72.0662 41.103 71.2976 38.6143C70.4924 35.9791 68.5161 34.0028 66.1005 33.1244C64.6366 35.2106 64.1242 37.9555 64.9293 40.5906C65.3319 41.9082 66.0639 43.0794 66.9423 44.0309C62.587 41.7252 58.4879 39.0535 54.828 35.1374L52.9249 36.8941C58.5245 42.8964 65.0026 46.1171 71.8832 49.3378C71.7002 50.2894 71.5538 51.2775 71.444 52.2291C69.3945 67.3811 71.5538 82.8259 77.6658 96.8799L80.5205 95.6356C77.2266 88.023 75.1039 79.9712 74.2255 71.8096C75.9823 72.2854 77.9586 72.0292 79.6056 70.8946H79.7154ZM7.46887 64.0872C7.65186 62.3304 7.02968 60.5005 5.63892 59.1829C4.24816 57.8654 2.4182 57.353 0.661449 57.6092C0.478454 59.3659 1.10064 61.1959 2.4914 62.5134C3.88216 63.831 5.71212 64.3434 7.46887 64.0872ZM6.48074 49.1548C7.8349 47.0686 8.09106 44.6165 7.35908 42.4206C5.05334 42.6036 2.85743 43.7747 1.50327 45.8609C0.149102 47.947 -0.107111 50.3992 0.62487 52.5951C2.93061 52.4121 5.12657 51.2409 6.48074 49.1548ZM65.0025 92.5978C64.3072 95.0134 64.8196 97.5021 66.1737 99.4053C68.3331 98.5269 70.0898 96.7335 70.8218 94.318C71.5172 91.9025 71.0048 89.4137 69.6506 87.5106C67.4913 88.3889 65.7345 90.1823 65.0025 92.5978ZM79.6788 90.2555C79.5324 92.0122 80.2277 93.6226 81.3989 94.7572C82.7531 93.8788 83.7413 92.3782 83.8877 90.6215C84.034 88.8647 83.3387 87.2544 82.1675 86.1198C80.8133 86.9982 79.8252 88.4987 79.6788 90.2555ZM96.7705 45.8609C97.9417 47.5444 99.7716 48.4594 101.675 48.5326C102.224 46.7027 101.968 44.6897 100.76 43.0062C99.5886 41.3226 97.7587 40.4076 95.8556 40.3344C95.3066 42.1644 95.5628 44.1773 96.7705 45.8609ZM56.6945 11.348C55.743 12.8486 55.5966 14.6419 56.1822 16.2157C57.8291 16.0327 59.4029 15.1543 60.3545 13.6171C61.306 12.1166 61.4524 10.3232 60.8668 8.74947C59.2199 8.93246 57.6461 9.81084 56.6945 11.348ZM45.3122 9.11546C46.3736 7.4685 46.52 5.52875 45.8978 3.8086C44.1045 3.99159 42.3844 4.94317 41.3596 6.59012C40.2982 8.23708 40.1518 10.1768 40.774 11.897C42.5674 11.714 44.2875 10.7624 45.3122 9.11546ZM28.4402 13.1779C30.7093 12.4826 32.3928 10.799 33.198 8.71287C31.4046 7.4319 29.0257 6.99271 26.7566 7.68809C24.4874 8.38347 22.8039 10.067 21.9987 12.1532C23.792 13.4341 26.171 13.8733 28.4402 13.1779ZM55.6698 5.60195C57.6461 6.40713 59.7689 6.22413 61.4891 5.23596C60.9767 3.33281 59.5859 1.68585 57.6462 0.880675C55.6698 0.075496 53.5471 0.258491 51.8269 1.24666C52.3393 3.14981 53.73 4.79677 55.6698 5.60195ZM11.385 28.5495C13.0685 28.3665 14.4959 27.4516 15.3011 26.0974C14.2031 24.9628 12.6293 24.3407 10.9458 24.487C9.26221 24.6334 7.83488 25.585 7.0297 26.9392C8.12767 28.0738 9.70144 28.6959 11.385 28.5495ZM21.1569 20.6075C21.5229 22.5107 22.7307 24.0479 24.341 24.853C25.5122 23.4989 26.0978 21.6323 25.7318 19.7292C25.5488 18.6678 25.073 17.7528 24.4142 16.9842C30.5995 20.3148 37.2605 22.7303 44.0679 24.0845L44.3973 22.5107C41.5791 21.9617 38.7611 21.1931 35.9795 20.2782C40.4446 18.6678 44.6901 16.2889 48.3866 13.3243L47.3618 12.0434C43.2993 15.3007 38.5048 17.826 33.4908 19.3632C28.5499 17.4966 23.7921 15.0445 19.4368 12.1532L18.5218 13.5073C19.7296 14.3125 20.9739 15.0811 22.2183 15.8131C21.1935 17.1306 20.7177 18.8508 21.0837 20.6441L21.1569 20.6075ZM7.98125 67.7471C14.7521 70.7848 20.7543 75.1401 25.6586 80.5934L26.8664 79.532C23.0601 75.2865 18.595 71.6632 13.6175 68.8085L13.4345 54.0225C15.2645 54.2787 17.2042 53.7297 18.6682 52.3755C20.1687 50.9847 20.8641 49.045 20.6811 47.1418C18.8146 46.849 16.8016 47.3614 15.3011 48.7522C14.2763 49.7038 13.6541 50.8749 13.398 52.1193V48.6058H11.7509L11.9706 67.8569C8.74988 66.1367 5.34612 64.746 1.79601 63.6846L1.32026 65.2218C3.33321 65.8073 5.27292 66.5393 7.17607 67.3445C5.67551 68.9183 4.87038 71.1508 5.16317 73.4931C5.45596 75.8721 6.88329 77.885 8.78644 79.0196C10.3602 77.4092 11.202 75.1401 10.9092 72.7612C10.653 70.675 9.51843 68.8817 7.94468 67.6739L7.98125 67.7471ZM30.1969 83.9239C34.9914 82.8259 39.859 82.0573 44.7267 81.6547C44.6169 83.5945 45.2391 85.5342 46.6665 87.0714C48.2402 88.7183 50.4362 89.4503 52.5589 89.2673C52.8883 87.1446 52.2295 84.9486 50.6557 83.2651C49.8506 82.4233 48.899 81.8377 47.8742 81.4717C55.6332 81.0691 63.3922 81.5449 70.9316 82.9357L71.4074 80.3738C51.5341 76.6407 35.2842 80.264 35.2842 80.264C33.8934 80.5202 32.5026 80.7763 31.1119 81.0691C33.4176 73.4931 34.2594 65.4414 33.5274 57.4994C32.9784 51.6435 30.9654 45.0557 28.0009 38.6143C29.5747 37.8457 30.8923 36.5281 31.6242 34.7714C32.5758 32.5388 32.3562 30.0867 31.2582 28.1469C29.0989 28.7325 27.1958 30.2697 26.2442 32.5022C26.0246 33.0512 25.8416 33.6002 25.7684 34.1492C22.4379 28.0006 18.3022 22.2545 13.7639 17.7894L11.568 20.022C17.2408 25.6216 22.2915 33.3074 25.7684 41.1762C21.4131 39.0901 16.4356 38.2117 11.6046 38.6143C11.8608 38.5777 12.0804 38.5411 12.3 38.4679C12.3 36.1987 11.2386 34.0028 9.33546 32.5388C7.39571 31.0749 4.98018 30.6723 2.82083 31.2213C2.82083 33.4904 3.8822 35.6863 5.78535 37.1503C7.21271 38.2483 8.93283 38.7607 10.6164 38.6875C7.21268 39.0901 3.88215 40.1148 0.881034 41.7984L1.68622 43.2257C9.37201 38.9437 19.2904 39.0901 26.7932 43.5185C28.7329 48.4228 30.0505 53.2905 30.4531 57.719C30.4897 58.2679 30.5262 58.7803 30.5628 59.3293C30.1969 58.1582 29.4283 57.0968 28.3303 56.3648C26.8297 55.3766 25.0364 55.1936 23.4627 55.706C23.5725 57.353 24.4508 58.9633 25.9148 59.9515C27.3422 60.9031 29.0623 61.1227 30.5995 60.6469C30.7825 64.6362 30.5263 68.6255 29.8675 72.5416C29.5747 71.7364 29.1721 70.9312 28.6597 70.1992C27.0128 68.0033 24.4874 66.7955 21.9621 66.7223C21.3033 69.1745 21.7059 71.9194 23.3528 74.1519C24.7436 76.0185 26.7199 77.153 28.8427 77.4824C27.3421 83.4481 24.89 89.1575 21.5595 94.3546L24.1947 96.0381C26.6468 92.1952 28.6231 88.0962 30.1603 83.8507L30.1969 83.9239ZM54.6084 17.8992C54.0594 16.8744 53.181 16.0327 52.0099 15.5569C50.4727 14.9347 48.8258 15.0811 47.4716 15.8497C47.8742 17.3502 48.9356 18.6312 50.4727 19.2534C51.9367 19.8756 53.5105 19.7292 54.828 19.0704C55.3038 21.6689 55.4136 24.3406 55.1208 26.9758C52.5589 30.6357 49.631 34.0028 46.3737 37.0039C47.0324 35.8693 47.435 34.5518 47.5082 33.1244C47.6546 30.3429 46.4834 27.781 44.5437 26.0974C42.421 27.5614 40.9936 29.9769 40.8472 32.7584C40.7008 35.3936 41.7255 37.7725 43.4823 39.4926C40.1152 42.201 36.4919 44.5433 32.5758 46.4465L33.7104 48.7888C44.8365 43.3721 53.9131 34.6982 60.1715 23.8649C61.9649 25.2922 64.3072 25.9144 66.7227 25.402C69.1748 24.8896 71.1146 23.2427 72.1393 21.1565C70.346 19.656 67.8938 18.9606 65.4417 19.5096C63.7582 19.8756 62.3308 20.7539 61.2694 21.9617C64.2705 16.3255 66.5397 10.1402 67.9671 3.5524L65.4417 3.00342C63.7948 10.7624 60.8669 17.9724 56.9142 24.3041C56.9874 15.4105 52.8883 6.48033 45.8978 0.844075L44.8731 2.08844C49.8139 6.07774 53.2177 11.8238 54.6084 17.9358V17.8992ZM40.774 102.48L41.9086 103.651C44.6535 101.016 47.3618 98.6733 50.1799 96.6237C49.7773 97.4289 49.5577 98.3439 49.5577 99.3321C49.5577 101.272 50.4727 103.029 51.9001 104.163C53.3274 103.065 54.2425 101.308 54.2791 99.3687C54.2791 97.6851 53.5837 96.1479 52.4857 95.05C54.279 93.8422 56.109 92.7442 57.9755 91.7195C56.8776 95.599 56.9508 99.881 58.3049 103.797L59.8421 103.285C58.4513 99.1857 58.5245 94.6108 60.0617 90.6581C63.868 88.7915 67.8939 87.3276 72.2126 86.1564L71.81 84.5827C59.9153 87.7668 50.363 93.2932 40.8472 102.516L40.774 102.48Z" fill="#F1D1C0"/>
<path d="M120.487 68.7569L121.402 67.6589C121.732 68.0249 122.317 68.3177 123.122 68.3177C123.818 68.3177 124.22 68.0981 124.22 67.7321C124.22 67.4759 124.037 67.2929 123.488 67.2197L122.464 67.0367C121.292 66.8538 120.707 66.1584 120.707 65.3166C120.707 64.0722 121.951 63.1938 123.562 63.1938C124.66 63.1938 125.611 63.5964 125.977 64.182L124.989 65.2068C124.66 64.7676 124.111 64.5114 123.488 64.5114C122.903 64.5114 122.573 64.731 122.573 65.097C122.573 65.3898 122.756 65.5362 123.452 65.646L124.257 65.7924C125.465 66.012 126.014 66.5976 126.014 67.4759C126.014 68.7569 124.696 69.5987 122.939 69.5987C121.805 69.5987 120.817 69.2327 120.414 68.7203L120.487 68.7569Z" fill="#F1D1C0"/>
<path d="M128.245 67.4033V63.3774H128.903C129.599 63.3774 129.855 63.3774 130.184 63.2676V67.0007C130.184 67.7327 130.477 68.0255 131.063 68.0255C131.941 68.0255 132.527 67.4033 132.527 66.3419V63.3774H133.185C133.881 63.3774 134.137 63.3774 134.466 63.2676V69.526H132.527V68.5012C132.087 69.2332 131.282 69.6724 130.331 69.6724C129.05 69.6724 128.208 68.9404 128.208 67.4399L128.245 67.4033Z" fill="#F1D1C0"/>
<path d="M136.627 68.7569L137.542 67.6589C137.871 68.0249 138.457 68.3177 139.262 68.3177C139.957 68.3177 140.36 68.0981 140.36 67.7321C140.36 67.4759 140.177 67.2929 139.628 67.2197L138.603 67.0367C137.432 66.8538 136.847 66.1584 136.847 65.3166C136.847 64.0722 138.091 63.1938 139.701 63.1938C140.799 63.1938 141.751 63.5964 142.117 64.182L141.129 65.2068C140.799 64.7676 140.25 64.5114 139.628 64.5114C139.042 64.5114 138.713 64.731 138.713 65.097C138.713 65.3898 138.896 65.5362 139.591 65.646L140.397 65.7924C141.604 66.012 142.153 66.5976 142.153 67.4759C142.153 68.7569 140.836 69.5987 139.079 69.5987C137.944 69.5987 136.956 69.2327 136.554 68.7203L136.627 68.7569Z" fill="#F1D1C0"/>
<path d="M144.789 67.1464V64.8407H143.728V63.5597H143.837C144.826 63.4133 145.374 62.7911 145.374 61.8029V61.4369H145.448C146.033 61.4369 146.363 61.4369 146.729 61.3271V63.3401H148.998V64.8041H146.729V67.4026C146.729 67.915 146.985 68.2078 147.314 68.2078C147.644 68.2078 148.01 67.8784 148.193 67.4392L149.51 68.2444C149.144 69.1227 148.266 69.5985 147.241 69.5985C145.74 69.5985 144.752 68.6104 144.752 67.1098L144.789 67.1464Z" fill="#F1D1C0"/>
<path d="M150.974 67.9515C150.974 66.5241 152.474 66.2313 153.719 66.085C154.487 65.9752 154.853 65.9386 154.853 65.3896C154.853 64.9138 154.56 64.6576 153.902 64.6576C153.243 64.6576 152.767 64.9138 152.547 65.3896L151.266 64.6576C151.742 63.706 152.84 63.2302 154.158 63.2302C155.768 63.2302 156.793 63.9622 156.793 65.6458V69.5253H154.926V68.6835C154.56 69.3423 153.938 69.6717 153.023 69.6717C151.742 69.6717 150.974 69.0129 150.974 67.9515ZM154.89 67.2195V66.5607C154.707 66.8535 154.451 66.9267 153.938 66.9999C153.462 67.0731 152.804 67.1463 152.804 67.7685C152.804 68.2077 153.06 68.4639 153.645 68.4639C154.341 68.4639 154.853 68.0979 154.853 67.2195H154.89Z" fill="#F1D1C0"/>
<path d="M159.209 61.4007C159.209 60.7785 159.685 60.3027 160.344 60.3027C161.002 60.3027 161.442 60.7785 161.442 61.4007C161.442 62.0229 160.966 62.4987 160.344 62.4987C159.721 62.4987 159.209 62.0229 159.209 61.4007ZM159.355 63.3771H160.014C160.6 63.3771 160.929 63.3771 161.295 63.2673V69.5257H159.355V63.3771Z" fill="#F1D1C0"/>
<path d="M163.929 63.3766H164.588C165.283 63.3766 165.54 63.3766 165.869 63.2668V64.4014C166.308 63.6694 167.113 63.2302 168.065 63.2302C169.382 63.2302 170.188 63.9622 170.188 65.4628V69.4887H168.248V65.8654C168.248 65.0968 167.918 64.8406 167.333 64.8406C166.418 64.8406 165.832 65.4628 165.832 66.5241V69.4887H163.893V63.34L163.929 63.3766Z" fill="#F1D1C0"/>
<path d="M172.346 67.9515C172.346 66.5241 173.846 66.2313 175.091 66.085C175.859 65.9752 176.225 65.9386 176.225 65.3896C176.225 64.9138 175.932 64.6576 175.274 64.6576C174.615 64.6576 174.139 64.9138 173.919 65.3896L172.639 64.6576C173.114 63.706 174.212 63.2302 175.53 63.2302C177.14 63.2302 178.165 63.9622 178.165 65.6458V69.5253H176.298V68.6835C175.932 69.3423 175.31 69.6717 174.395 69.6717C173.114 69.6717 172.346 69.0129 172.346 67.9515ZM176.262 67.2195V66.5607C176.079 66.8535 175.823 66.9267 175.31 66.9999C174.834 67.0731 174.176 67.1463 174.176 67.7685C174.176 68.2077 174.432 68.4639 175.017 68.4639C175.713 68.4639 176.225 68.0979 176.225 67.2195H176.262Z" fill="#F1D1C0"/>
<path d="M182.741 68.3915V69.4894H180.801V60.1933H181.46C182.155 60.1933 182.411 60.1933 182.741 60.0835V64.4388C183.07 63.7434 183.802 63.1944 184.68 63.1944C186.254 63.1944 187.645 64.6584 187.645 66.4151C187.645 68.1719 186.217 69.6358 184.68 69.6358C183.802 69.6358 183.033 69.0869 182.741 68.3915ZM185.668 66.4517C185.668 65.5002 185.01 64.8414 184.168 64.8414C183.399 64.8414 182.704 65.5002 182.704 66.4517C182.704 67.4033 183.399 68.0621 184.168 68.0621C185.01 68.0621 185.668 67.4033 185.668 66.4517Z" fill="#F1D1C0"/>
<path d="M189.879 60.1933H190.538C191.233 60.1933 191.489 60.1933 191.819 60.0835V69.4894H189.879V60.1933Z" fill="#F1D1C0"/>
<path d="M194.014 66.4509C194.014 64.7308 195.551 63.2302 197.271 63.2302C198.991 63.2302 200.382 64.6576 200.382 66.7437H195.953C196.027 67.5489 196.576 68.2077 197.6 68.2077C198.332 68.2077 198.772 67.9149 198.991 67.4025L200.309 68.1345C199.833 69.0495 198.918 69.6717 197.454 69.6717C195.441 69.6717 193.94 68.2443 193.94 66.4875L194.014 66.4509ZM195.99 65.7556H198.442C198.406 65.0602 197.966 64.5112 197.234 64.5112C196.466 64.5112 196.063 65.0602 195.953 65.7556H195.99Z" fill="#F1D1C0"/>
<path d="M120.487 80.2493C120.487 78.5291 122.024 77.0286 123.745 77.0286C125.465 77.0286 126.856 78.4559 126.856 80.5421H122.427C122.5 81.3472 123.049 82.006 124.074 82.006C124.806 82.006 125.245 81.7132 125.465 81.2009L126.782 81.9328C126.307 82.8478 125.392 83.47 123.928 83.47C121.915 83.47 120.414 82.0426 120.414 80.2859L120.487 80.2493ZM122.427 79.5539H124.879C124.843 78.8585 124.403 78.3095 123.671 78.3095C122.903 78.3095 122.5 78.8585 122.39 79.5539H122.427Z" fill="#F1D1C0"/>
<path d="M128.648 80.2493C128.648 78.5291 130.222 77.0286 132.235 77.0286C133.333 77.0286 134.285 77.5043 134.834 78.4193L133.516 79.4807C133.15 78.8585 132.674 78.5657 132.125 78.5657C131.284 78.5657 130.661 79.2611 130.661 80.2859C130.661 81.3106 131.247 81.9328 132.199 81.9328C132.894 81.9328 133.406 81.64 133.663 81.0911L134.943 81.9328C134.394 82.8844 133.443 83.47 132.162 83.47C130.222 83.47 128.685 82.0426 128.685 80.2859L128.648 80.2493Z" fill="#F1D1C0"/>
<path d="M136.443 80.2493C136.443 78.5291 138.017 77.0286 139.884 77.0286C141.75 77.0286 143.324 78.5291 143.324 80.2493C143.324 81.9694 141.75 83.47 139.884 83.47C138.017 83.47 136.443 81.9694 136.443 80.2493ZM141.311 80.2493C141.311 79.2977 140.689 78.6389 139.847 78.6389C139.005 78.6389 138.383 79.2977 138.383 80.2493C138.383 81.2008 139.005 81.8596 139.847 81.8596C140.689 81.8596 141.311 81.2008 141.311 80.2493Z" fill="#F1D1C0"/>
<path d="M145.777 79.1135H149.547V80.6507H145.777V79.1135Z" fill="#F1D1C0"/>
<path d="M151.229 77.1753H153.206L154.78 81.2012L156.39 77.1753H158.147L155.585 83.3239H153.828L151.266 77.1753H151.229Z" fill="#F1D1C0"/>
<path d="M159.792 75.1969C159.792 74.5747 160.268 74.0989 160.927 74.0989C161.585 74.0989 162.025 74.5747 162.025 75.1969C162.025 75.819 161.549 76.2948 160.927 76.2948C160.304 76.2948 159.792 75.819 159.792 75.1969ZM159.938 77.1732H160.597C161.183 77.1732 161.512 77.1732 161.878 77.0634V83.3218H159.938V77.1732Z" fill="#F1D1C0"/>
<path d="M164.479 74.0268H165.138C165.834 74.0268 166.09 74.0268 166.419 73.917V83.3229H164.479V74.0268Z" fill="#F1D1C0"/>
<path d="M169.017 74.0268H169.675C170.371 74.0268 170.627 74.0268 170.956 73.917V83.3229H169.017V74.0268Z" fill="#F1D1C0"/>
<path d="M173.153 81.7498C173.153 80.3225 174.654 80.0297 175.898 79.8833C176.667 79.7735 177.033 79.7369 177.033 79.1879C177.033 78.7121 176.74 78.4559 176.081 78.4559C175.422 78.4559 174.947 78.7121 174.727 79.1879L173.446 78.4559C173.922 77.5043 175.02 77.0286 176.337 77.0286C177.948 77.0286 178.973 77.7605 178.973 79.4441V83.3236H177.106V82.4818C176.74 83.1406 176.118 83.47 175.203 83.47C173.922 83.47 173.153 82.8112 173.153 81.7498ZM177.069 81.0545V80.3957C176.886 80.6885 176.63 80.7617 176.118 80.8349C175.642 80.9081 174.983 80.9813 174.983 81.6034C174.983 82.0426 175.239 82.2988 175.825 82.2988C176.52 82.2988 177.033 81.9328 177.033 81.0545H177.069Z" fill="#F1D1C0"/>
<path d="M181.02 82.5916L181.935 81.4936C182.265 81.8596 182.85 82.1524 183.656 82.1524C184.351 82.1524 184.754 81.9328 184.754 81.5668C184.754 81.3106 184.571 81.1277 184.022 81.0545L182.997 80.8715C181.826 80.6885 181.24 79.9931 181.24 79.1513C181.24 77.9069 182.484 77.0286 184.095 77.0286C185.193 77.0286 186.144 77.4312 186.51 78.0167L185.522 79.0415C185.193 78.6023 184.644 78.3461 184.022 78.3461C183.436 78.3461 183.107 78.5657 183.107 78.9317C183.107 79.2245 183.29 79.3709 183.985 79.4807L184.79 79.6271C185.998 79.8467 186.547 80.4323 186.547 81.3107C186.547 82.5916 185.229 83.4334 183.473 83.4334C182.338 83.4334 181.35 83.0674 180.947 82.555L181.02 82.5916Z" fill="#F1D1C0"/>
<path d="M122.831 26.302V29.3031L124.514 31.4991L127.076 32.3409L129.675 31.4991L130.846 29.9253H133.518L131.102 33.2192L127.076 34.5368L123.087 33.2192L120.488 29.9253V25.6798L123.087 22.3859L127.076 21.0684L131.102 22.3859L133.518 25.6798H130.846L129.675 24.1061L127.076 23.2643L124.514 24.1061L122.831 26.302Z" fill="#F1D1C0"/>
<path d="M145.923 32.0112H139.665L138.787 34.2803H136.298L141.824 21.3608H143.728L149.254 34.2803H146.765L145.887 32.0112H145.923ZM140.434 30.0348H145.118L142.776 23.996L140.434 30.0348Z" fill="#F1D1C0"/>
<path d="M159.869 27.4359L161.552 29.5953V31.4252L159.723 33.6212L156.941 34.5728L153.976 33.6212L152.146 30.5835H154.562L155.257 31.9376L156.904 32.633L158.478 32.0474L159.283 31.0226V30.1809L158.478 29.1927L154.086 27.8019L152.586 26.0086V24.2884L153.976 22.1657L156.721 21.2141L159.54 22.1657L161.003 24.7276H158.661L158.222 23.776L156.721 23.2271L155.331 23.776L154.818 24.7276V25.3132L155.294 26.0818L159.832 27.6189L159.869 27.4359Z" fill="#F1D1C0"/>
<path d="M174.14 32.0112H167.882L167.003 34.2803H164.515L170.041 21.3608H171.944L177.471 34.2803H174.982L174.104 32.0112H174.14ZM168.687 30.0348H173.372L171.029 23.996L168.687 30.0348Z" fill="#F1D1C0"/>
<path d="M128.172 44.601L129.855 46.7603V48.5903L128.025 50.7862L125.244 51.7378L122.279 50.7862L120.449 47.7485H122.865L123.56 49.1027L125.207 49.798L126.781 49.2125L127.586 48.1877V47.3459L126.781 46.3577L122.389 44.967L120.888 43.1736V41.4535L122.279 39.3307L125.024 38.3792L127.842 39.3307L129.306 41.8927H126.964L126.525 40.9411L125.024 40.3921L123.633 40.9411L123.121 41.8927V42.4782L123.597 43.2468L128.135 44.784L128.172 44.601Z" fill="#F1D1C0"/>
<path d="M134.137 38.4878H142.811V40.5739H136.48V43.8312H142.665V45.9174H136.48V49.3943H142.921V51.4804H134.101V38.561L134.137 38.4878Z" fill="#F1D1C0"/>
<path d="M147.533 38.4878H149.876V49.3577H155.841V51.4438H147.533V38.5244V38.4878Z" fill="#F1D1C0"/>
<path d="M164.332 51.4072H162.209L157.269 38.4878H159.647L163.307 48.5891L166.967 38.4878H169.346L164.405 51.4072H164.332Z" fill="#F1D1C0"/>
<path d="M180.29 49.1759H174.031L173.153 51.4451H170.664L176.191 38.5256H178.094L183.62 51.4451H181.131L180.253 49.1759H180.29ZM174.8 47.1996H179.484L177.142 41.1608L174.8 47.1996Z" fill="#F1D1C0"/>
<path d="M192.331 44.8573H199.651V46.9435L197.163 50.3838L193.137 51.7014L189.147 50.3838L186.549 47.0899V42.8444L189.147 39.5505L193.137 38.2329L197.163 39.5505L199.578 42.8444H196.906L195.735 41.2706L193.137 40.4289L190.575 41.2706L188.891 43.4666V46.4677L190.575 48.6636L193.137 49.542L195.735 48.6636L196.98 46.9435H192.331V44.8573Z" fill="#F1D1C0"/>
<path d="M209.531 44.8573H216.851V46.9435L214.362 50.3838L210.336 51.7014L206.347 50.3838L203.748 47.0899V42.8444L206.347 39.5505L210.336 38.2329L214.362 39.5505L216.777 42.8444H214.106L212.934 41.2706L210.336 40.4289L207.774 41.2706L206.09 43.4666V46.4677L207.774 48.6636L210.336 49.542L212.934 48.6636L214.179 46.9435H209.531V44.8573Z" fill="#F1D1C0"/>
<path d="M223.696 38.4878V51.4072H221.354V38.4878H223.696Z" fill="#F1D1C0"/>
<path d="M234.895 38.2329L238.885 39.5505L241.483 42.8444V47.0899L238.885 50.3838L234.895 51.7014L230.906 50.3838L228.308 47.0899V42.8444L230.906 39.5505L234.895 38.2329ZM239.178 46.4677V43.4666L237.494 41.2706L234.932 40.4289L232.37 41.2706L230.687 43.4666V46.4677L232.37 48.6636L234.932 49.5054L237.494 48.6636L239.178 46.4677Z" fill="#F1D1C0"/>
</svg>
