<svg width="120" height="53" viewBox="0 0 120 53" fill="none" xmlns="http://www.w3.org/2000/svg">
<path d="M49.8539 26.8055C49.9448 27.8596 49.5631 28.9319 48.7271 29.6952C47.8911 30.4586 46.8006 30.7494 45.7646 30.5858C45.6737 29.5317 46.0554 28.4594 46.8914 27.696C47.7275 26.9327 48.818 26.6419 49.8539 26.8055ZM43.0384 12.0112C42.5477 13.029 42.584 14.1558 43.0384 15.1009C44.0743 14.8828 44.9831 14.2104 45.4738 13.1926C45.9645 12.1748 45.9282 11.0479 45.4738 10.1029C44.456 10.321 43.5291 10.9934 43.0384 12.0112ZM40.4394 11.466C41.2209 10.3755 41.4935 8.95785 41.0937 7.59475C40.6939 6.21346 39.6761 5.19568 38.4402 4.70496C37.6587 5.79545 37.386 7.21308 37.7859 8.57618C38.1857 9.95746 39.2035 10.9753 40.4394 11.466ZM44.0017 39.0007C42.584 39.0916 41.3663 39.8549 40.6212 40.9454C41.5117 41.9269 42.8203 42.5085 44.2379 42.4176C45.6556 42.3267 46.8733 41.5634 47.6184 40.4729C46.7279 39.4914 45.4193 38.9099 44.0017 39.0007ZM47.8002 32.9304C48.8362 32.5669 49.8903 32.2761 50.9626 32.0943L50.8172 31.2946C48.7089 31.6763 46.6552 32.3851 44.765 33.3666C44.3652 30.295 45.1467 27.1144 46.946 24.5881L46.2917 24.1156C44.3106 26.8963 43.4928 30.4041 44.0198 33.7846C41.748 35.075 39.7306 36.7652 38.113 38.7826L38.731 39.2915C40.8938 36.6017 43.8199 34.4934 47.0914 33.203C46.637 33.9118 46.4371 34.8024 46.6006 35.6929C46.8006 36.8198 47.4912 37.7103 48.4181 38.201C49.1269 37.4195 49.4723 36.329 49.2723 35.2204C49.1088 34.2571 48.5454 33.4393 47.8002 32.9304ZM21.883 46.6341C21.9557 45.1438 21.3196 43.7807 20.2654 42.8719C19.1386 43.6716 18.3571 44.962 18.2844 46.4524C18.2117 47.9427 18.8478 49.3058 19.9019 50.2146C21.0288 49.4149 21.8103 48.1245 21.883 46.6341ZM44.2561 20.8987C43.8744 21.4439 43.7654 22.1527 43.9835 22.8434C44.2016 23.534 44.7286 24.0247 45.3466 24.261C45.7283 23.7158 45.8373 23.0069 45.6192 22.3163C45.4011 21.6257 44.8741 21.1349 44.2561 20.8987ZM29.062 16.1005C28.6803 16.6458 28.5713 17.3546 28.7894 18.0452C29.0075 18.7359 29.5345 19.2266 30.1525 19.4629C30.5342 18.9176 30.6432 18.2088 30.4251 17.5182C30.207 16.8275 29.68 16.3368 29.062 16.1005ZM14.1951 46.725C13.2318 46.9431 12.4684 47.5974 12.0868 48.4334C12.7956 49.015 13.7589 49.2695 14.7403 49.0514C15.7036 48.8333 16.4669 48.179 16.8486 47.3429C16.1398 46.7613 15.1765 46.5069 14.1951 46.725ZM11.4325 42.9992C10.7237 42.1995 9.68772 41.7088 8.54271 41.7633C7.3977 41.8178 6.39809 42.4176 5.79833 43.29C6.50714 44.0897 7.5431 44.5804 8.68811 44.5258C9.83312 44.4713 10.8327 43.8716 11.4325 42.9992ZM39.6761 35.6566C40.5303 35.075 41.021 34.1481 41.0755 33.1848C40.1668 32.894 39.1308 33.0031 38.2584 33.5846C37.5678 34.0572 37.1316 34.7478 36.9499 35.493C36.7499 33.2212 36.7318 30.9493 36.9135 28.6593C38.1857 28.8592 39.5307 28.5321 40.5848 27.6233C41.6753 26.6782 42.2023 25.3151 42.1296 23.9702C40.8029 23.7158 39.3853 24.0429 38.2948 24.988C37.7677 25.4424 37.386 25.9876 37.1316 26.5874C37.1316 26.5874 37.1316 26.5874 37.1316 26.5692C37.4224 24.3519 37.9313 22.1527 38.6038 20.0081C39.6761 18.8086 40.9847 17.7544 42.4386 16.9366C42.6567 17.7726 43.1838 18.5359 43.9835 19.0085C44.9286 19.5719 46.0372 19.6264 46.9823 19.2629C46.8551 18.2452 46.2917 17.3001 45.3466 16.7366C44.8377 16.4277 44.2925 16.2823 43.7472 16.2641C45.2376 15.5916 46.8551 15.1191 48.509 14.9373L48.4181 14.1377C44.9467 14.5557 41.6571 16.0642 39.1672 18.2997C40.4031 14.8828 42.1115 11.6295 44.2379 8.64888L42.9839 7.75832C39.5852 12.5201 37.2225 17.9725 36.0593 23.6431C35.714 23.4795 35.3686 23.3159 35.0415 23.1523C35.6776 22.1346 35.8775 20.8623 35.4959 19.6264C35.096 18.3179 34.1146 17.3364 32.9151 16.9002C32.1881 17.9362 31.9336 19.2993 32.3335 20.6079C32.5334 21.2622 32.8969 21.8438 33.3331 22.3163C31.1703 21.1713 29.1347 19.8445 27.3172 17.8998L26.3721 18.7722C29.1529 21.7529 32.3698 23.3523 35.7867 24.9516C35.6958 25.4242 35.6231 25.9149 35.5686 26.3874C34.5508 33.9118 35.6231 41.5815 38.6583 48.5606L40.0759 47.9427C38.4402 44.1624 37.3861 40.1639 36.9499 36.1109C37.8222 36.3472 38.8037 36.22 39.6215 35.6566H39.6761ZM3.79909 32.2761C3.88997 31.4037 3.581 30.4949 2.89036 29.8406C2.19971 29.1864 1.29098 28.9319 0.418587 29.0591C0.327714 29.9315 0.636685 30.8403 1.32733 31.4946C2.01797 32.1488 2.9267 32.4033 3.79909 32.2761ZM3.30839 24.8608C3.98086 23.8248 4.10807 22.6071 3.74457 21.5166C2.59956 21.6075 1.50909 22.1891 0.836627 23.225C0.164161 24.261 0.0369275 25.4787 0.400423 26.5692C1.54543 26.4783 2.63593 25.8967 3.30839 24.8608ZM32.3698 46.4342C32.0245 47.6337 32.2789 48.8696 32.9514 49.8147C34.0237 49.3785 34.8961 48.4879 35.2596 47.2884C35.6049 46.0889 35.3505 44.853 34.678 43.9079C33.6057 44.3441 32.7333 45.2347 32.3698 46.4342ZM39.6579 45.271C39.5852 46.1434 39.9305 46.9431 40.5121 47.5065C41.1846 47.0703 41.6753 46.3251 41.748 45.4528C41.8207 44.5804 41.4754 43.7807 40.8938 43.2173C40.2213 43.6535 39.7306 44.3986 39.6579 45.271ZM48.1455 23.225C48.7271 24.0611 49.6358 24.5154 50.5809 24.5518C50.8535 23.6431 50.7263 22.6434 50.1266 21.8074C49.545 20.9714 48.6362 20.517 47.6911 20.4806C47.4185 21.3894 47.5457 22.389 48.1455 23.225ZM28.2441 6.08624C27.7716 6.83141 27.6989 7.72197 27.9897 8.50348C28.8076 8.41261 29.5891 7.97642 30.0616 7.21308C30.5342 6.46791 30.6069 5.57735 30.3161 4.79583C29.4982 4.88671 28.7167 5.3229 28.2441 6.08624ZM22.5918 4.97758C23.1189 4.15972 23.1916 3.19646 22.8826 2.34224C21.992 2.43312 21.1378 2.90566 20.6289 3.72352C20.1019 4.54139 20.0292 5.50465 20.3381 6.35886C21.2287 6.26799 22.0829 5.79545 22.5918 4.97758ZM14.2132 6.99498C15.3401 6.64966 16.1761 5.81362 16.5759 4.77766C15.6854 4.14154 14.504 3.92345 13.3772 4.26877C12.2504 4.61409 11.4143 5.45013 11.0145 6.48609C11.905 7.1222 13.0864 7.3403 14.2132 6.99498ZM27.7352 3.2328C28.7167 3.63265 29.7708 3.54178 30.625 3.05106C30.3706 2.10597 29.68 1.28811 28.7167 0.888261C27.7353 0.488417 26.6811 0.57929 25.8269 1.07001C26.0814 2.0151 26.772 2.83296 27.7352 3.2328ZM5.74381 14.6284C6.57984 14.5375 7.28865 14.0831 7.68849 13.4107C7.14325 12.8473 6.36173 12.5383 5.52569 12.611C4.68965 12.6837 3.98085 13.1562 3.581 13.8287C4.12625 14.3921 4.90777 14.7011 5.74381 14.6284ZM10.5965 10.6845C10.7782 11.6295 11.378 12.3929 12.1777 12.7927C12.7592 12.1203 13.0501 11.1933 12.8683 10.2483C12.7774 9.72119 12.5412 9.26682 12.214 8.88515C15.2855 10.5391 18.5933 11.7386 21.9738 12.4111L22.1374 11.6295C20.738 11.3569 19.3385 10.9753 17.9572 10.5209C20.1746 9.72119 22.2828 8.53983 24.1185 7.06768L23.6096 6.43156C21.5922 8.04912 19.2113 9.30317 16.7213 10.0665C14.2678 9.1396 11.905 7.92189 9.74225 6.48609L9.28788 7.15855C9.88764 7.5584 10.5056 7.94007 11.1235 8.30356C10.6146 8.95785 10.3784 9.81207 10.5601 10.7026L10.5965 10.6845ZM4.05354 34.0935C7.41587 35.602 10.3965 37.7648 12.8319 40.4729L13.4317 39.9458C11.5415 37.8375 9.32423 36.0382 6.85247 34.6206L6.76159 27.278C7.67032 27.4052 8.63357 27.1326 9.36056 26.4601C10.1057 25.7695 10.4511 24.8062 10.3602 23.8612C9.43327 23.7158 8.43365 23.9702 7.68849 24.6608C7.1796 25.1334 6.87065 25.715 6.74342 26.3329V24.5881H5.92554L6.03461 34.1481C4.43523 33.2939 2.74495 32.6032 0.982 32.0761L0.745747 32.8395C1.74536 33.1303 2.7086 33.4938 3.65369 33.8936C2.90853 34.6751 2.5087 35.7838 2.6541 36.947C2.7995 38.1283 3.5083 39.1279 4.45339 39.6914C5.2349 38.8917 5.65292 37.7648 5.50752 36.5835C5.3803 35.5475 4.81689 34.657 4.03537 34.0572L4.05354 34.0935ZM15.0856 42.1268C17.4665 41.5815 19.8838 41.1999 22.301 40.9999C22.2465 41.9632 22.5555 42.9265 23.2643 43.6898C24.0458 44.5077 25.1363 44.8712 26.1904 44.7803C26.354 43.7262 26.0268 42.6357 25.2453 41.7996C24.8455 41.3816 24.3729 41.0908 23.864 40.9091C27.7171 40.7092 31.5701 40.9454 35.3141 41.6361L35.5504 40.3638C25.6815 38.51 17.6119 40.3093 17.6119 40.3093C16.9213 40.4365 16.2306 40.5638 15.54 40.7092C16.685 36.947 17.103 32.9485 16.7395 29.0046C16.4669 26.0966 15.4673 22.8252 13.9951 19.6264C14.7766 19.2448 15.4309 18.5905 15.7944 17.7181C16.267 16.6094 16.1579 15.3917 15.6127 14.4285C14.5404 14.7193 13.5953 15.4826 13.1228 16.5912C13.0137 16.8639 12.9228 17.1365 12.8865 17.4091C11.2326 14.3558 9.17882 11.5023 6.92515 9.285L5.83468 10.3937C8.65177 13.1744 11.1599 16.9911 12.8865 20.8987C10.7237 19.8627 8.25192 19.4265 5.85285 19.6264C5.98007 19.6083 6.08913 19.5901 6.19817 19.5537C6.19817 18.4269 5.67111 17.3364 4.72602 16.6094C3.76276 15.8824 2.56323 15.6825 1.49092 15.9551C1.49092 17.082 2.01798 18.1725 2.96307 18.8994C3.67189 19.4447 4.52608 19.6991 5.36212 19.6628C3.67187 19.8627 2.01796 20.3716 0.527632 21.2076L0.927478 21.9165C4.74418 19.79 9.66954 19.8627 13.3954 22.0619C14.3586 24.4973 15.0129 26.9145 15.2128 29.1137C15.231 29.3863 15.2492 29.6407 15.2674 29.9133C15.0856 29.3318 14.7039 28.8047 14.1587 28.4412C13.4135 27.9505 12.523 27.8596 11.7415 28.114C11.796 28.9319 12.2322 29.7316 12.9592 30.2223C13.668 30.6949 14.5222 30.8039 15.2856 30.5676C15.3764 32.5487 15.2492 34.5297 14.9221 36.4744C14.7767 36.0746 14.5767 35.6747 14.3223 35.3112C13.5044 34.2208 12.2504 33.621 10.9963 33.5846C10.6692 34.8024 10.8691 36.1655 11.6869 37.2741C12.3776 38.201 13.359 38.7645 14.4131 38.928C13.668 41.8905 12.4503 44.7258 10.7964 47.3066L12.105 48.1426C13.3227 46.2343 14.3041 44.1987 15.0674 42.0904L15.0856 42.1268ZM27.2082 9.33952C26.9356 8.83063 26.4994 8.41261 25.9178 8.17634C25.1544 7.86737 24.3366 7.94007 23.6641 8.32174C23.864 9.0669 24.3911 9.70302 25.1544 10.012C25.8814 10.321 26.6629 10.2483 27.3172 9.92111C27.5535 11.2115 27.608 12.5383 27.4626 13.8469C26.1904 15.6643 24.7364 17.3364 23.1189 18.8267C23.446 18.2633 23.6459 17.609 23.6823 16.9002C23.755 15.5189 23.1734 14.2467 22.2101 13.4107C21.156 14.1377 20.4472 15.3372 20.3745 16.7185C20.3018 18.0271 20.8107 19.2084 21.683 20.0626C20.011 21.4076 18.2117 22.5707 16.267 23.5158L16.8304 24.679C22.3555 21.9892 26.8629 17.6817 29.9708 12.302C30.8613 13.0108 32.0245 13.3198 33.224 13.0653C34.4417 12.8109 35.405 11.993 35.9139 10.9571C35.0233 10.2119 33.8056 9.86659 32.5879 10.1392C31.7519 10.321 31.043 10.7572 30.516 11.3569C32.0063 8.55801 33.1331 5.48647 33.842 2.21502L32.5879 1.9424C31.77 5.79544 30.3161 9.37587 28.3532 12.5201C28.3896 8.10364 26.354 3.669 22.8826 0.870086L22.3737 1.48803C24.8273 3.46908 26.5175 6.32251 27.2082 9.3577V9.33952ZM20.3381 51.3414L20.9015 51.923C22.2647 50.6144 23.6096 49.4512 25.009 48.4334C24.8091 48.8333 24.7001 49.2876 24.7001 49.7784C24.7001 50.7416 25.1544 51.614 25.8632 52.1774C26.5721 51.6322 27.0264 50.7598 27.0446 49.7965C27.0446 48.9605 26.6993 48.1972 26.154 47.6519C27.0446 47.0521 27.9533 46.5069 28.8803 45.998C28.335 47.9245 28.3714 50.051 29.0438 51.9957L29.8072 51.7412C29.1165 49.7057 29.1529 47.4338 29.9162 45.4709C31.8064 44.544 33.8056 43.817 35.9502 43.2354L35.7503 42.4539C29.8435 44.0351 25.0999 46.7795 20.3745 51.3596L20.3381 51.3414Z" fill="#1A3C34"/>
<path d="M59.9231 34.5956L60.3774 34.0503C60.541 34.2321 60.8318 34.3775 61.2317 34.3775C61.577 34.3775 61.7769 34.2684 61.7769 34.0867C61.7769 33.9595 61.686 33.8686 61.4134 33.8322L60.9045 33.7414C60.3229 33.6505 60.0321 33.3052 60.0321 32.8871C60.0321 32.2692 60.6501 31.833 61.4497 31.833C61.995 31.833 62.4675 32.0329 62.6493 32.3237L62.1586 32.8326C61.995 32.6145 61.7224 32.4873 61.4134 32.4873C61.1226 32.4873 60.959 32.5963 60.959 32.7781C60.959 32.9235 61.0499 32.9962 61.3952 33.0507L61.7951 33.1234C62.3948 33.2325 62.6675 33.5233 62.6675 33.9595C62.6675 34.5956 62.0132 35.0136 61.1408 35.0136C60.5774 35.0136 60.0866 34.8318 59.8867 34.5774L59.9231 34.5956Z" fill="#1A3C34"/>
<path d="M63.7755 33.9227V31.9235H64.1026C64.448 31.9235 64.5752 31.9235 64.7387 31.869V33.7228C64.7387 34.0863 64.8842 34.2317 65.175 34.2317C65.6111 34.2317 65.9019 33.9227 65.9019 33.3956V31.9235H66.2291C66.5744 31.9235 66.7016 31.9235 66.8652 31.869V34.9768H65.9019V34.4679C65.6838 34.8314 65.284 35.0495 64.8115 35.0495C64.1753 35.0495 63.7573 34.686 63.7573 33.9409L63.7755 33.9227Z" fill="#1A3C34"/>
<path d="M67.9382 34.5956L68.3926 34.0503C68.5562 34.2321 68.847 34.3775 69.2468 34.3775C69.5921 34.3775 69.792 34.2684 69.792 34.0867C69.792 33.9595 69.7011 33.8686 69.4285 33.8322L68.9196 33.7414C68.338 33.6505 68.0473 33.3052 68.0473 32.8871C68.0473 32.2692 68.6652 31.833 69.4649 31.833C70.0101 31.833 70.4827 32.0329 70.6644 32.3237L70.1737 32.8326C70.0101 32.6145 69.7375 32.4873 69.4285 32.4873C69.1377 32.4873 68.9742 32.5963 68.9742 32.7781C68.9742 32.9235 69.065 32.9962 69.4104 33.0507L69.8102 33.1234C70.41 33.2325 70.6826 33.5233 70.6826 33.9595C70.6826 34.5956 70.0283 35.0136 69.1559 35.0136C68.5925 35.0136 68.1018 34.8318 67.9019 34.5774L67.9382 34.5956Z" fill="#1A3C34"/>
<path d="M71.9924 33.7952V32.6502H71.4653V32.0141H71.5199C72.0106 31.9414 72.2832 31.6324 72.2832 31.1417V30.96H72.3195C72.6103 30.96 72.7739 30.96 72.9556 30.9055V31.9051H74.0825V32.6321H72.9556V33.9225C72.9556 34.1769 73.0829 34.3223 73.2465 34.3223C73.41 34.3223 73.5918 34.1587 73.6826 33.9406L74.3369 34.3405C74.1552 34.7767 73.719 35.0129 73.2101 35.0129C72.4649 35.0129 71.9742 34.5222 71.9742 33.7771L71.9924 33.7952Z" fill="#1A3C34"/>
<path d="M75.063 34.1949C75.063 33.4861 75.8082 33.3407 76.4261 33.268C76.8078 33.2134 76.9895 33.1953 76.9895 32.9227C76.9895 32.6864 76.8441 32.5592 76.517 32.5592C76.1898 32.5592 75.9535 32.6864 75.8445 32.9227L75.2084 32.5592C75.4447 32.0866 75.9899 31.8503 76.6442 31.8503C77.4439 31.8503 77.9528 32.2138 77.9528 33.0499V34.9764H77.0259V34.5584C76.8441 34.8855 76.5351 35.0491 76.0808 35.0491C75.4447 35.0491 75.063 34.722 75.063 34.1949ZM77.0077 33.8314V33.5042C76.9168 33.6496 76.7896 33.686 76.5351 33.7223C76.2989 33.7587 75.9717 33.795 75.9717 34.104C75.9717 34.3221 76.0989 34.4493 76.3897 34.4493C76.7351 34.4493 76.9895 34.2676 76.9895 33.8314H77.0077Z" fill="#1A3C34"/>
<path d="M79.1533 30.9423C79.1533 30.6333 79.3896 30.397 79.7167 30.397C80.0439 30.397 80.262 30.6333 80.262 30.9423C80.262 31.2512 80.0257 31.4875 79.7167 31.4875C79.4078 31.4875 79.1533 31.2512 79.1533 30.9423ZM79.226 31.9237H79.5532C79.844 31.9237 80.0075 31.9237 80.1893 31.8692V34.9771H79.226V31.9237Z" fill="#1A3C34"/>
<path d="M81.4962 31.923H81.8234C82.1687 31.923 82.2959 31.923 82.4595 31.8685V32.4319C82.6775 32.0684 83.0774 31.8503 83.5499 31.8503C84.2042 31.8503 84.6041 32.2138 84.6041 32.959V34.9582H83.6408V33.1589C83.6408 32.7773 83.4773 32.65 83.1865 32.65C82.7321 32.65 82.4413 32.959 82.4413 33.4861V34.9582H81.478V31.9049L81.4962 31.923Z" fill="#1A3C34"/>
<path d="M85.6763 34.1949C85.6763 33.4861 86.4214 33.3407 87.0394 33.268C87.421 33.2134 87.6028 33.1953 87.6028 32.9227C87.6028 32.6864 87.4574 32.5592 87.1303 32.5592C86.8031 32.5592 86.5668 32.6864 86.4578 32.9227L85.8217 32.5592C86.0579 32.0866 86.6032 31.8503 87.2575 31.8503C88.0572 31.8503 88.566 32.2138 88.566 33.0499V34.9764H87.6391V34.5584C87.4574 34.8855 87.1484 35.0491 86.6941 35.0491C86.0579 35.0491 85.6763 34.722 85.6763 34.1949ZM87.621 33.8314V33.5042C87.5301 33.6496 87.4029 33.686 87.1484 33.7223C86.9121 33.7587 86.585 33.795 86.585 34.104C86.585 34.3221 86.7122 34.4493 87.003 34.4493C87.3483 34.4493 87.6028 34.2676 87.6028 33.8314H87.621Z" fill="#1A3C34"/>
<path d="M90.8392 34.4136V34.9588H89.876V30.3424H90.2031C90.5485 30.3424 90.6757 30.3424 90.8392 30.2879V32.4507C91.0028 32.1054 91.3663 31.8328 91.8025 31.8328C92.584 31.8328 93.2747 32.5597 93.2747 33.4321C93.2747 34.3045 92.5658 35.0315 91.8025 35.0315C91.3663 35.0315 90.9846 34.7589 90.8392 34.4136ZM92.2932 33.4503C92.2932 32.9778 91.9661 32.6506 91.5481 32.6506C91.1664 32.6506 90.8211 32.9778 90.8211 33.4503C90.8211 33.9229 91.1664 34.25 91.5481 34.25C91.9661 34.25 92.2932 33.9229 92.2932 33.4503Z" fill="#1A3C34"/>
<path d="M94.3833 30.3424H94.7105C95.0558 30.3424 95.183 30.3424 95.3466 30.2879V34.9588H94.3833V30.3424Z" fill="#1A3C34"/>
<path d="M96.4367 33.4497C96.4367 32.5955 97.2001 31.8503 98.0543 31.8503C98.9085 31.8503 99.5992 32.5592 99.5992 33.5951H97.4C97.4364 33.995 97.709 34.3221 98.2179 34.3221C98.5814 34.3221 98.7995 34.1767 98.9085 33.9223L99.5628 34.2858C99.3265 34.7401 98.8722 35.0491 98.1452 35.0491C97.1456 35.0491 96.4004 34.3403 96.4004 33.4679L96.4367 33.4497ZM97.4182 33.1044H98.6359C98.6177 32.7591 98.3996 32.4865 98.0361 32.4865C97.6545 32.4865 97.4545 32.7591 97.4 33.1044H97.4182Z" fill="#1A3C34"/>
<path d="M59.9231 40.3024C59.9231 39.4482 60.6864 38.703 61.5406 38.703C62.3948 38.703 63.0855 39.4118 63.0855 40.4478H60.8863C60.9227 40.8476 61.1953 41.1748 61.7042 41.1748C62.0677 41.1748 62.2858 41.0294 62.3948 40.7749L63.0491 41.1384C62.8129 41.5928 62.3585 41.9018 61.6315 41.9018C60.6319 41.9018 59.8867 41.1929 59.8867 40.3206L59.9231 40.3024ZM60.8863 39.9571H62.104C62.0859 39.6117 61.8678 39.3391 61.5043 39.3391C61.1226 39.3391 60.9227 39.6117 60.8682 39.9571H60.8863Z" fill="#1A3C34"/>
<path d="M63.9771 40.3024C63.9771 39.4482 64.7586 38.703 65.7582 38.703C66.3034 38.703 66.776 38.9393 67.0486 39.3936L66.3943 39.9207C66.2125 39.6117 65.9763 39.4663 65.7036 39.4663C65.2856 39.4663 64.9767 39.8117 64.9767 40.3206C64.9767 40.8294 65.2675 41.1384 65.74 41.1384C66.0853 41.1384 66.3398 40.993 66.467 40.7204L67.1031 41.1384C66.8305 41.611 66.358 41.9018 65.7218 41.9018C64.7586 41.9018 63.9952 41.1929 63.9952 40.3206L63.9771 40.3024Z" fill="#1A3C34"/>
<path d="M67.8477 40.3024C67.8477 39.4482 68.6292 38.703 69.5561 38.703C70.483 38.703 71.2645 39.4482 71.2645 40.3024C71.2645 41.1566 70.483 41.9018 69.5561 41.9018C68.6292 41.9018 67.8477 41.1566 67.8477 40.3024ZM70.2649 40.3024C70.2649 39.8298 69.9559 39.5027 69.5379 39.5027C69.1199 39.5027 68.8109 39.8298 68.8109 40.3024C68.8109 40.7749 69.1199 41.1021 69.5379 41.1021C69.9559 41.1021 70.2649 40.7749 70.2649 40.3024Z" fill="#1A3C34"/>
<path d="M72.4824 39.7384H74.3544V40.5017H72.4824V39.7384Z" fill="#1A3C34"/>
<path d="M75.1899 38.7755H76.1714L76.9529 40.7747L77.7526 38.7755H78.625L77.3527 41.8289H76.4804L75.2081 38.7755H75.1899Z" fill="#1A3C34"/>
<path d="M79.4419 37.7937C79.4419 37.4847 79.6782 37.2484 80.0053 37.2484C80.3325 37.2484 80.5506 37.4847 80.5506 37.7937C80.5506 38.1026 80.3143 38.3389 80.0053 38.3389C79.6963 38.3389 79.4419 38.1026 79.4419 37.7937ZM79.5146 38.7751H79.8417C80.1325 38.7751 80.2961 38.7751 80.4778 38.7206V41.8285H79.5146V38.7751Z" fill="#1A3C34"/>
<path d="M81.7695 37.2124H82.0967C82.442 37.2124 82.5692 37.2124 82.7328 37.1579V41.8288H81.7695V37.2124Z" fill="#1A3C34"/>
<path d="M84.0229 37.2124H84.3501C84.6954 37.2124 84.8226 37.2124 84.9862 37.1579V41.8288H84.0229V37.2124Z" fill="#1A3C34"/>
<path d="M86.0771 41.0475C86.0771 40.3387 86.8223 40.1933 87.4403 40.1206C87.8219 40.0661 88.0037 40.0479 88.0037 39.7753C88.0037 39.539 87.8583 39.4118 87.5311 39.4118C87.204 39.4118 86.9677 39.539 86.8586 39.7753L86.2225 39.4118C86.4588 38.9393 87.0041 38.703 87.6583 38.703C88.458 38.703 88.9669 39.0665 88.9669 39.9025V41.8291H88.04V41.411C87.8583 41.7382 87.5493 41.9018 87.0949 41.9018C86.4588 41.9018 86.0771 41.5746 86.0771 41.0475ZM88.0218 40.7022V40.3751C87.931 40.5205 87.8037 40.5568 87.5493 40.5932C87.313 40.6295 86.9859 40.6659 86.9859 40.9748C86.9859 41.1929 87.1131 41.3202 87.4039 41.3202C87.7492 41.3202 88.0037 41.1384 88.0037 40.7022H88.0218Z" fill="#1A3C34"/>
<path d="M89.9841 41.4656L90.4385 40.9203C90.602 41.1021 90.8928 41.2475 91.2927 41.2475C91.638 41.2475 91.8379 41.1384 91.8379 40.9567C91.8379 40.8294 91.747 40.7386 91.4744 40.7022L90.9655 40.6114C90.3839 40.5205 90.0932 40.1752 90.0932 39.7571C90.0932 39.1392 90.7111 38.703 91.5108 38.703C92.056 38.703 92.5285 38.9029 92.7103 39.1937L92.2196 39.7026C92.056 39.4845 91.7834 39.3573 91.4744 39.3573C91.1836 39.3573 91.0201 39.4663 91.0201 39.6481C91.0201 39.7935 91.1109 39.8662 91.4563 39.9207L91.8561 39.9934C92.4558 40.1025 92.7285 40.3933 92.7285 40.8294C92.7285 41.4656 92.0742 41.8836 91.2018 41.8836C90.6384 41.8836 90.1477 41.7018 89.9478 41.4474L89.9841 41.4656Z" fill="#1A3C34"/>
<path d="M61.087 13.512V15.0023L61.9231 16.0928L63.1953 16.5108L64.4857 16.0928L65.0673 15.3113H66.394L65.1945 16.947L63.1953 17.6013L61.2142 16.947L59.9238 15.3113V13.203L61.2142 11.5673L63.1953 10.913L65.1945 11.5673L66.394 13.203H65.0673L64.4857 12.4215L63.1953 12.0035L61.9231 12.4215L61.087 13.512Z" fill="#1A3C34"/>
<path d="M72.5544 16.347H69.4465L69.0103 17.4738H67.7744L70.5188 11.0581H71.4639L74.2083 17.4738H72.9724L72.5362 16.347H72.5544ZM69.8282 15.3655H72.1545L70.9914 12.3667L69.8282 15.3655Z" fill="#1A3C34"/>
<path d="M79.4794 14.0753L80.3155 15.1476V16.0564L79.4067 17.1468L78.0254 17.6194L76.5533 17.1468L75.6445 15.6383H76.8441L77.1894 16.3108L78.0073 16.6561L78.7888 16.3653L79.1886 15.8564V15.4384L78.7888 14.9477L76.6078 14.2571L75.8626 13.3665V12.5123L76.5533 11.4581L77.9164 10.9856L79.3158 11.4581L80.0428 12.7304H78.8796L78.6615 12.2578L77.9164 11.9852L77.2258 12.2578L76.9713 12.7304V13.0212L77.2076 13.4028L79.4612 14.1662L79.4794 14.0753Z" fill="#1A3C34"/>
<path d="M86.5676 16.347H83.4597L83.0235 17.4738H81.7876L84.532 11.0581H85.4771L88.2214 17.4738H86.9856L86.5494 16.347H86.5676ZM83.8595 15.3655H86.1859L85.0227 12.3667L83.8595 15.3655Z" fill="#1A3C34"/>
<path d="M63.7392 22.5994L64.5752 23.6717V24.5805L63.6665 25.6709L62.2852 26.1435L60.813 25.6709L59.9043 24.1624H61.1038L61.4491 24.8349L62.267 25.1802L63.0485 24.8894L63.4484 24.3805V23.9625L63.0485 23.4718L60.8676 22.7812L60.1224 21.8906V21.0364L60.813 19.9822L62.1761 19.5097L63.5756 19.9822L64.3026 21.2545H63.1394L62.9213 20.7819L62.1761 20.5093L61.4855 20.7819L61.231 21.2545V21.5453L61.4673 21.9269L63.721 22.6903L63.7392 22.5994Z" fill="#1A3C34"/>
<path d="M66.7013 19.5637H71.0087V20.5996H67.8645V22.2172H70.936V23.2531H67.8645V24.9797H71.0632V26.0157H66.6831V19.6L66.7013 19.5637Z" fill="#1A3C34"/>
<path d="M73.3535 19.5637H74.5167V24.9616H77.4792V25.9975H73.3535V19.5818V19.5637Z" fill="#1A3C34"/>
<path d="M81.6952 25.9793H80.6411L78.1875 19.5637H79.3688L81.1863 24.5799L83.0038 19.5637H84.1852L81.7316 25.9793H81.6952Z" fill="#1A3C34"/>
<path d="M89.6203 24.8711H86.5124L86.0762 25.9979H84.8403L87.5847 19.5822H88.5298L91.2742 25.9979H90.0383L89.6021 24.8711H89.6203ZM86.8941 23.8896H89.2205L88.0573 20.8908L86.8941 23.8896Z" fill="#1A3C34"/>
<path d="M95.5996 22.7268H99.2346V23.7627L97.9987 25.4712L95.9995 26.1254L94.0184 25.4712L92.728 23.8354V21.7272L94.0184 20.0914L95.9995 19.4371L97.9987 20.0914L99.1982 21.7272H97.8715L97.2899 20.9456L95.9995 20.5276L94.7272 20.9456L93.8912 22.0361V23.5265L94.7272 24.6169L95.9995 25.0531L97.2899 24.6169L97.9078 23.7627H95.5996V22.7268Z" fill="#1A3C34"/>
<path d="M104.141 22.7268H107.776V23.7627L106.54 25.4712L104.541 26.1254L102.56 25.4712L101.27 23.8354V21.7272L102.56 20.0914L104.541 19.4371L106.54 20.0914L107.74 21.7272H106.413L105.831 20.9456L104.541 20.5276L103.269 20.9456L102.433 22.0361V23.5265L103.269 24.6169L104.541 25.0531L105.831 24.6169L106.449 23.7627H104.141V22.7268Z" fill="#1A3C34"/>
<path d="M111.175 19.5637V25.9793H110.012V19.5637H111.175Z" fill="#1A3C34"/>
<path d="M116.737 19.4371L118.718 20.0914L120.009 21.7272V23.8354L118.718 25.4712L116.737 26.1254L114.756 25.4712L113.466 23.8354V21.7272L114.756 20.0914L116.737 19.4371ZM118.864 23.5265V22.0361L118.028 20.9456L116.755 20.5276L115.483 20.9456L114.647 22.0361V23.5265L115.483 24.6169L116.755 25.035L118.028 24.6169L118.864 23.5265Z" fill="#1A3C34"/>
</svg>
